<svg xmlns="http://www.w3.org/2000/svg" width="1280" height="740.093" viewBox="0 0 1280 740.093">
  <g id="grd_path" transform="translate(1280 1104.051) rotate(180)">
    <rect id="Rectangle_32" data-name="Rectangle 32" width="1279.727" height="475.827" transform="translate(0 363.958)" fill="#fff"/>
    <path id="Path_238" data-name="Path 238" d="M820,349.649C699.52,363.88,621.87,411.078,446.432,401.17,30.81,363.52,14.1,379.372-190.3,359.385c-244.633-13.7-269.7-9.736-269.7-9.736V837.116H820Z" transform="translate(460 266.934)" fill="#0d31c1" opacity="0.38"/>
    <path id="Path_239" data-name="Path 239" d="M820,349.795c-120.48,18.14-198.13,78.3-373.568,65.668C30.81,367.475,14.1,387.68-190.3,362.2c-244.633-17.461-269.7-12.41-269.7-12.41V971.116H820Z" transform="translate(460 132.934)" fill="#0d31c1" opacity="0.38"/>
    <path id="Path_240" data-name="Path 240" d="M820,349.712c-120.48,15.923-198.13,68.73-373.568,57.644C30.81,365.232,14.1,382.968-190.3,360.606-434.937,345.278-460,349.712-460,349.712v545.4H820Z" transform="translate(460 208.934)" fill="#0d31c1" opacity="0.38"/>
    <path id="Path_241" data-name="Path 241" d="M820,349.6C699.52,362.61,621.87,405.745,446.432,396.69,30.81,362.28,14.1,376.768-190.3,358.5c-244.633-12.521-269.7-8.9-269.7-8.9V795.116H820Z" transform="translate(460 308.934)" fill="#001d8f" opacity="0.65"/>
  </g>
</svg>
